# xmcd CD database file
#
# Track frame offsets:
#	150
#	13270
#	25957
#	49072
#	62365
#	77462
#	88302
#	102467
#	115955
#	129052
#	143555
#	161295
#	174247
#	188450
#	202727
#	214320
#
# Disc length: 3148 seconds
#
# Revision: 3
# Processed by: cddbd v1.5.2PL0 Copyright (c) Steve Scherf et al.
# Submitted via: CDex 1.51
#
DISCID=c50c4a10
DTITLE=Jazz and Jazz #145 - Rhythm and Blues
DYEAR=2005
DGENRE=Jazz
TTITLE0=Roy Brown - Good Rockin' Tonight
TTITLE1=Clarence Gatemouth Brown - I Can Never Be That Way
TTITLE2=Louis Jorgan - Blue Light Boogie
TTITLE3=Hal Singer - Cornbread
TTITLE4=Erskine Hawkins - After Hours
TTITLE5=Nellie Lutcher and Nat King Cole - For You My Love
TTITLE6=Johnny Otis - Harlem Nocturne
TTITLE7=Cecil Payne Orchestra - Block Buster Boogie
TTITLE8=Percy Mayfield - Please Send Me Someone To Love
TTITLE9=Charles Brown - Driftin' Blues
TTITLE10=Hot Lips Page and Count Basie - Blues With Lips
TTITLE11=Arthur "Big Boy" Crudup - That's Alright Mama
TTITLE12=Count Basie - The King
TTITLE13=Ivory Joe Hunter - I Almost Lost My Mind
TTITLE14=Louis Jordan - School Days
TTITLE15=Slim Gaillard - Tee Say Malee
EXTD=YEAR: 2005
EXTT0=
EXTT1=
EXTT2=
EXTT3=
EXTT4=
EXTT5=
EXTT6=
EXTT7=
EXTT8=
EXTT9=
EXTT10=
EXTT11=
EXTT12=
EXTT13=
EXTT14=
EXTT15=
PLAYORDER=
